<svg width="21" height="21" viewBox="0 0 21 21" fill="none" xmlns="http://www.w3.org/2000/svg">
<g clip-path="url(#clip0_782_455)">
<path fill-rule="evenodd" clip-rule="evenodd" d="M20.4997 4.29773C19.7645 4.62653 18.9723 4.84505 18.1452 4.94243C18.9926 4.43495 19.6407 3.63077 19.95 2.67329C19.158 3.14171 18.2778 3.48527 17.3451 3.66905C16.5951 2.87219 15.53 2.37683 14.3499 2.37683C12.0842 2.37683 10.2498 4.21229 10.2498 6.47663C10.2498 6.7962 10.2852 7.10886 10.3547 7.41036C6.94545 7.23756 3.923 5.60549 1.89974 3.12233C1.5368 3.74843 1.34474 4.46033 1.34474 5.18435V5.18483C1.34474 6.6066 2.0666 7.86408 3.16808 8.5974C2.49596 8.57742 1.86374 8.38998 1.30862 8.08626V8.1375C1.30862 10.1258 2.72186 11.7848 4.59975 12.1598C4.25571 12.2533 3.89252 12.3049 3.51836 12.3049C3.25334 12.3049 2.99798 12.2776 2.74406 12.2314C3.26858 13.8598 4.78257 15.0468 6.57549 15.0814C5.16969 16.1828 3.404 16.8386 1.47914 16.8386C1.14692 16.8386 0.823281 16.8182 0.500061 16.7795C2.31962 17.947 4.47513 18.6232 6.79071 18.6232C14.3348 18.6232 18.4638 12.3713 18.4638 6.95058C18.4638 6.77046 18.4598 6.59592 18.4523 6.41946C19.2536 5.84627 19.9482 5.12291 20.4981 4.29947L20.5 4.29761L20.4996 4.29785L20.4997 4.29773Z" fill="white"/>
</g>
<defs>
<clipPath id="clip0_782_455">
<rect width="20" height="20" fill="white" transform="translate(0.5 0.5)"/>
</clipPath>
</defs>
</svg>